<svg width="217" height="42" viewBox="0 0 217 42" fill="none" xmlns="http://www.w3.org/2000/svg">
<path d="M33.0924 18.8783C31.8746 20.06 31.266 21.7035 31.4322 23.3619L31.4037 23.3343C31.5745 25.2859 30.8446 27.2108 29.4087 28.5956C27.9728 29.9805 25.9769 30.6844 23.9534 30.5197L23.982 30.5472C21.532 30.3273 19.2021 31.6126 18.1566 33.7607C17.111 35.9089 17.5744 38.4587 19.315 40.136C21.0557 41.8132 23.6999 42.2578 25.9263 41.2475C28.1527 40.2372 29.4833 37.9889 29.253 35.6263L29.2832 35.6538C29.1124 33.7023 29.8423 31.7774 31.2782 30.3925C32.7141 29.0077 34.7099 28.3037 36.7334 28.4685L36.7033 28.4409C39.3958 28.6745 41.9013 27.091 42.7542 24.6168C43.607 22.1426 42.5832 19.4277 40.2815 18.0599C37.9799 16.6922 35.0051 17.0311 33.0972 18.8783H33.0924Z" fill="#5454D4"/>
<path d="M21.3838 26.9376L21.3536 26.91C23.0742 27.0772 24.7817 26.4904 26.005 25.3116C27.2282 24.1327 27.8379 22.4863 27.6659 20.8268L27.696 20.8544C27.5252 18.9028 28.2551 16.9779 29.691 15.5931C31.1269 14.2082 33.1228 13.5043 35.1462 13.669L35.1161 13.6415C37.5662 13.8634 39.8976 12.5795 40.9447 10.4316C41.9919 8.28377 41.5299 5.73323 39.7897 4.05494C38.0496 2.37665 35.405 1.93111 33.178 2.94102C30.9509 3.95093 29.6197 6.19937 29.8498 8.56243L29.8212 8.53335C29.9926 10.485 29.2629 12.4103 27.8269 13.7952C26.3908 15.1802 24.3946 15.884 22.371 15.7187L22.3996 15.7478C20.679 15.5806 18.9715 16.1674 17.7483 17.3462C16.525 18.5251 15.9153 20.1715 16.0874 21.831L16.0588 21.8034C16.229 23.7548 15.499 25.6794 14.0632 27.0641C12.6274 28.4489 10.6319 29.153 8.60857 28.9888L8.63714 29.0163C6.18697 28.7944 3.85564 30.0783 2.8085 32.2262C1.76136 34.374 2.22333 36.9246 3.96348 38.6029C5.70364 40.2812 8.3482 40.7267 10.5753 39.7168C12.8023 38.7069 14.1335 36.4584 13.9034 34.0954L13.9336 34.1229C13.7628 32.1714 14.4926 30.2465 15.9285 28.8616C17.3644 27.4768 19.3603 26.7728 21.3838 26.9376Z" fill="#FF7143"/>
<path d="M10.7465 23.8653C11.9645 22.6838 12.5726 21.04 12.4051 19.3817L12.4352 19.4093C12.2643 17.4572 12.9946 15.5317 14.4312 14.1467C15.8679 12.7618 17.8646 12.0583 19.8886 12.2239L19.8585 12.1964C22.3078 12.4177 24.638 11.134 25.6845 8.98675C26.731 6.83956 26.2691 4.29002 24.5296 2.61235C22.7901 0.934687 20.1465 0.489172 17.9202 1.49847C15.6938 2.50776 14.3628 4.75512 14.5922 7.11736L14.5637 7.0898C14.7345 9.04134 14.0046 10.9662 12.5687 12.3511C11.1328 13.7359 9.1369 14.4399 7.11343 14.2752L7.142 14.3027C4.44951 14.0698 1.94456 15.6537 1.09222 18.1279C0.239884 20.6021 1.26404 23.3167 3.56569 24.6841C5.86734 26.0515 8.84191 25.7125 10.7497 23.8653H10.7465Z" fill="#5454D4"/>
<path d="M59.9126 8.59766H64.6265V30.7216H59.9126V8.59766Z" fill="#19191B"/>
<path fill-rule="evenodd" clip-rule="evenodd" d="M72.414 15.7027C69.3032 16.956 67.2827 19.8945 67.2962 23.146C67.2798 25.2781 68.1531 27.3269 69.7194 28.8315C71.2857 30.3361 73.4136 31.17 75.6241 31.1457C78.9955 31.1457 82.0342 29.1853 83.3213 26.1801C84.6083 23.1748 83.8897 19.7177 81.501 17.4231C79.1123 15.1286 75.5248 14.4494 72.414 15.7027ZM75.5572 19.7559C77.5407 19.7206 79.1832 21.2333 79.2381 23.1459C79.2916 24.0941 78.9316 25.0206 78.2451 25.7013C77.5587 26.382 76.6083 26.7547 75.6241 26.7294C73.6402 26.7295 72.0268 25.1879 72.0084 23.2746C71.9901 21.3614 73.5736 19.7912 75.5572 19.7559Z" fill="#19191B"/>
<path fill-rule="evenodd" clip-rule="evenodd" d="M102.739 29.9578V15.5688L98.151 15.5657V17.1118C97.0316 15.7908 95.3292 15.0599 93.5624 15.1417C89.2525 15.2728 85.829 18.6803 85.829 22.8391C85.829 26.9978 89.2525 30.4054 93.5624 30.5365C95.3292 30.6182 97.0316 29.8873 98.151 28.5664V29.9517C98.2298 30.8657 97.8738 31.7648 97.1832 32.3954C96.4927 33.026 95.5424 33.3197 94.6004 33.1938C93.1104 33.3405 91.6825 32.5797 91.0182 31.285L86.9962 33.5276C88.5698 36.0001 91.4436 37.4179 94.4433 37.2014C98.6223 37.2014 102.739 35.0491 102.739 29.9578ZM95.9126 19.3392C97.3306 19.956 98.2174 21.3424 98.1526 22.8413C98.1819 23.8092 97.7855 24.7439 97.0614 25.4146C96.3372 26.0853 95.3528 26.4295 94.3513 26.3621C92.7957 26.3639 91.3953 25.4533 90.8137 24.0618C90.2321 22.6704 90.5862 21.0776 91.7081 20.0385C92.8301 18.9993 94.4945 18.7225 95.9126 19.3392Z" fill="#19191B"/>
<path fill-rule="evenodd" clip-rule="evenodd" d="M110.527 15.7027C107.416 16.956 105.396 19.8945 105.409 23.146C105.393 25.2781 106.266 27.3269 107.832 28.8315C109.399 30.3361 111.527 31.17 113.737 31.1457C117.108 31.1457 120.147 29.1853 121.434 26.1801C122.721 23.1748 122.003 19.7177 119.614 17.4231C117.225 15.1286 113.638 14.4494 110.527 15.7027ZM113.67 19.7559C115.654 19.7206 117.296 21.2333 117.351 23.1459C117.405 24.0941 117.045 25.0206 116.358 25.7013C115.672 26.382 114.721 26.7547 113.737 26.7294C111.753 26.7295 110.14 25.1879 110.121 23.2746C110.103 21.3614 111.687 19.7912 113.67 19.7559Z" fill="#19191B"/>
<path fill-rule="evenodd" clip-rule="evenodd" d="M126.009 8.98751C124.952 9.40972 124.263 10.4044 124.263 11.5077C124.279 13.008 125.536 14.2205 127.092 14.2355C128.236 14.2355 129.267 13.5709 129.705 12.5515C130.142 11.5322 129.9 10.359 129.092 9.57882C128.283 8.79867 127.066 8.56529 126.009 8.98751ZM129.455 15.5688H124.739L124.733 30.7232H129.455V15.5688Z" fill="#19191B"/>
<path fill-rule="evenodd" clip-rule="evenodd" d="M147.778 28.652C149.188 27.1505 149.919 25.1688 149.809 23.1459C149.92 21.1227 149.189 19.1404 147.78 17.6384C146.37 16.1365 144.397 15.2389 142.298 15.1447C140.53 15.0517 138.811 15.73 137.618 16.9923V15.5687H132.904V36.7834H137.618V29.2965C138.811 30.5597 140.529 31.2387 142.298 31.1456C144.396 31.051 146.369 30.1535 147.778 28.652ZM141.294 19.6302C143.347 19.5971 145.044 21.1664 145.095 23.1459C145.166 24.1296 144.799 25.0958 144.085 25.8018C143.371 26.5078 142.379 26.8865 141.357 26.8426C139.304 26.8429 137.635 25.2466 137.618 23.2666C137.6 21.2865 139.241 19.6634 141.294 19.6302Z" fill="#19191B"/>
<path d="M164.355 26.1753C164.355 29.6608 161.214 31.1456 157.821 31.1456C155.016 31.3907 152.339 29.9619 151.064 27.5392L155.148 25.2966C155.489 26.4245 156.6 27.1696 157.815 27.0845C158.945 27.0845 159.511 26.7508 159.511 26.1462C159.511 24.4777 151.78 25.3579 151.78 20.115C151.78 16.8101 154.672 15.1447 157.94 15.1447C160.442 15.0683 162.789 16.3104 164.067 18.3868L160.045 20.4778C159.684 19.6663 158.855 19.1414 157.94 19.1445C157.123 19.1445 156.62 19.4507 156.62 19.9926C156.626 21.7208 164.355 20.5681 164.355 26.1753Z" fill="#19191B"/>
<path d="M181.575 15.5688V30.7233H176.861V29.2982C175.758 30.5738 174.087 31.2615 172.369 31.1473C169.195 31.1473 166.497 28.966 166.497 24.8712V15.5688H171.211V24.2053C171.131 24.9359 171.388 25.6633 171.915 26.1941C172.441 26.7248 173.183 27.0053 173.944 26.9607C175.672 26.9607 176.866 25.9917 176.866 23.8395V15.5734L181.575 15.5688Z" fill="#19191B"/>
<path d="M208.604 21.4178V30.7217H203.891V21.8112C203.891 20.2958 203.137 19.3268 201.629 19.3268C200.058 19.3268 199.177 20.3876 199.177 22.1755V30.7217H194.464V21.8112C194.464 20.2958 193.71 19.3268 192.201 19.3268C190.63 19.3268 189.75 20.3876 189.75 22.1755V30.7217H185.036V15.5673H189.75V16.9603C190.743 15.7046 192.329 15.0204 193.961 15.1433C195.602 15.0659 197.164 15.8249 198.077 17.1424C199.138 15.765 200.859 15.0101 202.634 15.1433C206.241 15.1448 208.604 17.6292 208.604 21.4178Z" fill="#19191B"/>
<path d="M212.591 15.4753C214.523 15.4753 216.09 13.9648 216.09 12.1016C216.09 10.2383 214.523 8.72778 212.591 8.72778C210.659 8.72778 209.093 10.2383 209.093 12.1016C209.093 13.9648 210.659 15.4753 212.591 15.4753Z" fill="#19191B"/>
</svg>
